<?xml version="1.0" encoding="UTF-8"?>
<svg xmlns="http://www.w3.org/2000/svg" height="511pt" viewBox="1 0 511.99998 511" width="511pt">
  <path d="m461.78125 202.363281c-4.324219 0-7.832031-3.503906-7.832031-7.828125v-89.027344c0-4.324218 3.507812-7.828124 7.832031-7.828124s7.828125 3.503906 7.828125 7.828124v89.027344c0 4.324219-3.503906 7.828125-7.828125 7.828125zm0 0" fill="#6198ce"></path>
  <path d="m0 98.105469 256-97.605469 256 97.605469-256 97.601562zm0 0" fill="#3b454f"></path>
  <path d="m447.0625 320.136719c0 105.519531-85.542969 191.058593-191.0625 191.058593s-191.058594-85.539062-191.058594-191.058593 85.539063-191.0625 191.058594-191.0625 191.0625 85.542969 191.0625 191.0625zm0 0" fill="#c9fff7"></path>
  <path d="m254.535156 511.1875c-104.84375-.785156-189.59375-86.023438-189.59375-191.050781 0-105.03125 84.75-190.261719 189.59375-191.046875-61.582031 1.324218-111.285156 86.347656-111.285156 191.046875 0 104.691406 49.703125 189.722656 111.285156 191.050781zm0 0" fill="#72cec0"></path>
  <g fill="#fc5f61">
    <path d="m196.777344 138.433594v.011718c0 7.441407-.78125 14.625-2.246094 21.496094-4.925781 23.164063-17.558594 42.9375-33.917969 58.273438-24.074219 22.558594-56.21875 35.515625-83.808593 35.515625 20.1875-54.472657 64.507812-97.234375 119.972656-115.296875zm0 0"></path>
    <path d="m447.058594 320.136719c0 26.675781-5.46875 52.085937-15.347656 75.144531h-.007813c-69.625-13.558594-27.363281-139.882812-59.464844-171.984375-32.101562-32.101563-89.261719 89.25-129.195312 49.328125-39.921875-39.929688 0-98.65625 12.957031-143.546875 105.515625 0 191.058594 85.535156 191.058594 191.058594zm0 0"></path>
    <path d="m353.082031 484.734375c-28.449219 16.816406-61.636719 26.464844-97.078125 26.464844-.492187 0-.972656 0-1.460937-.011719-.816407-.011719-1.640625-.019531-2.464844-.03125-.886719-.019531-1.785156-.042969-2.683594-.074219-.5-.019531-.992187-.03125-1.492187-.050781-.585938-.019531-1.160156-.050781-1.734375-.082031-.8125-.042969-1.628907-.085938-2.433594-.136719-99.804687-6.328125-178.789063-89.28125-178.789063-190.671875 15.761719-15.777344 52.175782-35.769531 79.613282-29.085937 10.824218 2.628906 20.261718 9.425781 26.464844 22.277343 21.921874 45.414063-19.574219 86.910157 10.960937 117.449219 30.527344 30.535156 73.589844-43.847656 122.136719-28.1875 48.542968 15.660156 48.949218 82.128906 48.949218 82.128906zm0 0"></path>
  </g>
  <path d="m160.613281 218.214844c-24.074219 22.558594-56.21875 35.515625-83.808593 35.515625 20.1875-54.472657 64.507812-97.234375 119.972656-115.296875v.011718c0 7.441407-.78125 14.625-2.246094 21.496094-13.621094 15.050782-25.222656 34.960938-33.917969 58.273438zm0 0" fill="#e83842"></path>
  <path d="m254.542969 511.1875c-.816407-.011719-1.640625-.023438-2.464844-.03125-.886719-.023438-1.785156-.042969-2.683594-.074219-.5-.019531-.992187-.03125-1.492187-.050781-.585938-.023438-1.160156-.054688-1.734375-.085938-.8125-.039062-1.628907-.082031-2.433594-.132812-99.804687-6.328125-178.789063-89.28125-178.789063-190.675781 15.761719-15.773438 52.175782-35.765625 79.613282-29.082031-.867188 9.476562-1.304688 19.195312-1.304688 29.082031 0 104.691406 49.703125 189.722656 111.289063 191.050781zm0 0" fill="#e83842"></path>
  <path d="m399.398438 106.964844v88.976562c-68.890626-17.695312-140.226563-22.425781-210.433594-14.199218-25.660156 2.996093-51.175782 7.738281-76.355469 14.199218v-88.976562c25.179687-6.464844 50.695313-11.203125 76.355469-14.210938 70.207031-8.214844 141.542968-3.488281 210.433594 14.210938zm0 0" fill="#545d68"></path>
  <path d="m188.964844 92.753906v88.988282c-25.660156 2.996093-51.175782 7.734374-76.355469 14.199218v-88.976562c25.179687-6.464844 50.695313-11.203125 76.355469-14.210938zm0 0" fill="#3b454f"></path>
  <path d="m479.789062 200.800781c0 9.945313-8.0625 18.007813-18.007812 18.007813s-18.007812-8.0625-18.007812-18.007813c0-9.945312 8.0625-18.007812 18.007812-18.007812s18.007812 8.0625 18.007812 18.007812zm0 0" fill="#f7d360"></path>
</svg>
